<svg width="40" height="40" viewBox="0 0 40 40" fill="none" xmlns="http://www.w3.org/2000/svg">
<path fill-rule="evenodd" clip-rule="evenodd" d="M10.7182 6.39797C9.01197 6.53297 7.74127 7.81579 7.57055 9.57569L7.5492 9.79582L7.43431 9.81028C6.45186 9.93392 5.65039 10.5159 5.24328 11.4013C4.5666 12.8729 5.3579 14.6471 6.91903 15.1585C7.28928 15.2798 7.35339 15.2831 9.25916 15.2774L10.9691 15.2724L11.0918 14.9677C12.147 12.3479 14.6256 10.5842 17.3702 10.5004L17.732 10.4894L17.7199 10.2959C17.6587 9.32115 17.1657 8.55782 16.3383 8.15684C15.6243 7.81083 14.6974 7.85031 14.1093 8.25179L13.9965 8.32875L13.8597 8.09122C13.2843 7.09164 12.3625 6.4976 11.2317 6.39751C10.9965 6.3767 10.987 6.3767 10.7182 6.39797ZM13.6479 19.8224C12.7614 19.847 12.4003 19.8895 11.3693 20.0907C10.8375 20.1945 10.2279 20.3694 9.62679 20.5906C9.48461 20.643 9.29504 20.7109 9.20552 20.7416C8.85377 20.8622 7.73375 21.3962 7.24282 21.6773C7.12698 21.7437 6.90428 21.8702 6.74796 21.9586C6.26276 22.2328 6.18976 22.2902 6.15834 22.4227C6.08395 22.7363 6.08309 24.023 6.15723 24.0932C6.1697 24.105 6.55304 23.9318 7.03219 23.6979C7.42879 23.5043 8.53656 23.0839 9.00029 22.951C9.97165 22.6726 10.6556 22.5441 11.7235 22.4396C12.1452 22.3984 13.1433 22.4088 13.6001 22.4592C14.0675 22.5108 14.7429 22.6076 14.9117 22.6473C15.9076 22.8815 16.8217 23.1908 17.7457 23.6063C18.6547 24.0151 19.3282 24.2911 19.8903 24.4855C22.0945 25.2475 24.0311 25.3924 26.3624 24.9699C27.2548 24.8082 28.6157 24.369 29.5506 23.941C30.6913 23.4187 31.5507 22.9625 32.5377 22.3555C32.6957 22.2583 32.9348 22.1113 33.0689 22.0287C33.3784 21.8383 34.2539 21.2516 34.2856 21.2135C34.3247 21.1663 33.985 20.6754 33.6493 20.294C33.4861 20.1085 33.484 20.1076 33.3895 20.1717C33.081 20.3812 31.5515 21.1293 30.9898 21.3455C30.8933 21.3826 30.7024 21.4561 30.5655 21.5088C29.8953 21.7667 29.1737 21.9841 28.3634 22.1722C27.8542 22.2904 27.0949 22.3902 26.2184 22.4542C25.7521 22.4883 24.9646 22.4708 24.3901 22.4137C22.8722 22.2627 21.5167 21.901 19.852 21.2029C19.1559 20.911 18.9185 20.8161 18.5884 20.6977C18.1088 20.5256 17.6284 20.3617 17.5063 20.3285C17.4537 20.3141 17.3158 20.2746 17.1999 20.2407C16.849 20.138 16.1862 20.0006 15.7255 19.935C15.6413 19.923 15.5508 19.91 15.5245 19.906C15.463 19.8967 15.138 19.8642 14.9404 19.8475C14.6347 19.8218 14.0694 19.8108 13.6479 19.8224ZM34.508 21.9639C34.1986 22.2011 32.5801 23.2125 32.0399 23.5062C31.9872 23.5349 31.8881 23.5904 31.8197 23.6298C31.5788 23.7681 30.3913 24.3767 30.2208 24.4492C30.1681 24.4716 30.0475 24.5256 29.9527 24.5693C28.7871 25.1068 27.4387 25.5365 26.2667 25.744C24.6257 26.0346 23.3023 26.0379 21.7607 25.7553L21.4509 25.6985L21.3838 25.7732C21.3335 25.8293 20.5172 27.1566 20.4882 27.2297C20.4853 27.2369 20.8337 27.2389 21.2623 27.2341L22.0417 27.2254L22.0048 27.2717C21.9845 27.2972 21.8681 27.4427 21.7462 27.595C21.6243 27.7474 21.4225 28.0012 21.2977 28.1592C21.1729 28.3172 20.9862 28.5514 20.8827 28.6796C20.7792 28.8079 20.6945 28.9209 20.6945 28.9306C20.6945 28.9414 22.5752 28.9464 25.5342 28.9432L30.374 28.9382L30.6516 28.8888C31.5946 28.721 32.2361 28.4498 32.9363 27.9228C33.5503 27.4606 34.2297 26.639 34.4666 26.072C34.4931 26.0088 34.5585 25.8571 34.612 25.7349C35.0368 24.7644 35.1198 23.5105 34.8262 22.4979C34.6506 21.8925 34.6351 21.8664 34.508 21.9639ZM11.9725 23.1834C10.2079 23.2865 8.69015 23.7146 6.72844 24.6627L6.32895 24.8557L6.34146 24.9224C6.39519 25.2088 6.79305 26.0332 7.06725 26.4263C8.06086 27.8505 9.4444 28.6858 11.1874 28.9136C11.2845 28.9263 12.4 28.9378 14.2336 28.9451L17.1267 28.9566L18.1067 26.9973C18.6457 25.9197 19.0865 25.0271 19.0864 25.0137C19.0862 25.0003 19.0667 24.9811 19.043 24.971C19.0193 24.961 18.8448 24.8888 18.6552 24.8107C18.1893 24.6188 17.9929 24.5334 17.9441 24.5017C17.9216 24.4871 17.8312 24.4453 17.7431 24.4089C17.655 24.3725 17.4321 24.2764 17.2478 24.1954C16.0115 23.6523 14.8311 23.3319 13.6466 23.218C13.3525 23.1897 12.2535 23.167 11.9725 23.1834ZM12.0918 24.0901C11.5731 24.1304 11.2715 24.1834 10.5651 24.358C9.92548 24.5162 9.81827 24.5549 9.81827 24.6275C9.81827 24.68 9.82928 24.6815 10.0715 24.6634C11.3149 24.5706 11.3967 24.5667 12.0873 24.566C14.3934 24.5637 15.5228 24.9826 15.6792 25.8981C15.8515 26.9066 14.6095 27.556 13.8881 26.8346C13.6995 26.646 13.6347 26.4966 13.6096 26.1929C13.5846 25.8905 13.5271 25.8135 13.326 25.8135C12.9874 25.8135 12.9711 26.4457 13.2969 26.9375C13.8044 27.7033 14.8472 27.8901 15.5788 27.3462C16.5979 26.5887 16.3859 25.1258 15.1702 24.5259C14.4874 24.189 13.1878 24.005 12.0918 24.0901ZM31.4257 24.8741C31.1692 24.9338 30.8723 25.0571 30.4889 25.2631C29.7716 25.6482 29.3642 25.8441 28.7655 26.0914C28.5946 26.162 28.018 26.3569 27.6937 26.4536C27.2042 26.5997 26.3655 26.7948 25.9137 26.8677C25.379 26.954 25.2567 26.9904 25.3443 27.0373C25.395 27.0644 26.0606 27.1002 26.2762 27.0874C26.3605 27.0824 26.5328 27.0733 26.6592 27.0672C27.054 27.0481 27.9168 26.8959 28.3376 26.7711C29.0161 26.5698 30.0115 26.1464 30.4984 25.8519C31.08 25.5002 31.6216 25.3183 31.9214 25.374C32.8242 25.5416 32.8601 26.7654 31.9689 26.9937C31.776 27.0431 31.6038 27.0114 31.3429 26.8786C31.0517 26.7304 30.8623 26.8095 30.8623 27.0793C30.8623 27.1994 30.9406 27.2879 31.1327 27.3849C31.8279 27.7358 32.6309 27.4946 32.9853 26.8284C33.5375 25.7903 32.5899 24.6028 31.4257 24.8741ZM19.603 25.2104C19.5914 25.2245 19.3359 25.7256 19.0353 26.3242C18.7347 26.9227 18.3427 27.6989 18.1642 28.0491L17.8396 28.6858L17.9602 28.6866C18.0265 28.6871 18.3155 28.6867 18.6024 28.6858L19.124 28.6841L19.107 28.7281C19.0976 28.7522 18.9952 28.9917 18.8792 29.2602C18.7634 29.5288 18.6037 29.9079 18.5246 30.1027C18.4454 30.2976 18.3617 30.5001 18.3385 30.5527C18.1717 30.9324 17.8746 31.6742 17.8852 31.6848C17.8896 31.6892 17.9158 31.6587 17.9435 31.617C17.9711 31.5752 18.0363 31.4867 18.0884 31.4203C18.1404 31.3539 18.3791 31.0496 18.6188 30.7442C18.8585 30.4388 19.1579 30.0554 19.2841 29.8921C19.4104 29.7289 19.6103 29.4747 19.7284 29.3272C19.8465 29.1798 20.0067 28.9761 20.0843 28.8745C20.4238 28.4301 20.5424 28.278 20.7368 28.0372C20.8504 27.8963 20.9434 27.7757 20.9435 27.7691C20.9435 27.7625 20.6412 27.7599 20.2717 27.7633C19.9023 27.7668 19.5879 27.7649 19.5731 27.7592C19.553 27.7515 19.5744 27.7039 19.6578 27.5711C19.7936 27.3549 20.067 26.9169 20.2322 26.651C20.4289 26.3344 20.8684 25.5988 20.8726 25.5792C20.8747 25.5693 20.8118 25.5444 20.7328 25.5239C20.4903 25.4608 20.0836 25.3397 19.8482 25.2604C19.6649 25.1987 19.6203 25.1896 19.603 25.2104ZM15.1989 30.2333C14.022 30.9485 13.62 31.4832 13.8206 32.0664C13.9771 32.5212 14.5346 32.7464 14.9707 32.5308C15.3332 32.3517 15.5046 31.9994 15.5372 31.3665C15.5549 31.0235 15.4576 30.146 15.4 30.1285C15.3895 30.1253 15.299 30.1724 15.1989 30.2333ZM21.1299 30.2097C20.4448 30.5981 19.9138 31.0679 19.7436 31.4363C19.4101 32.1581 20.1452 32.8749 20.86 32.5249C21.346 32.2869 21.4993 31.691 21.3626 30.5719C21.3302 30.3072 21.2964 30.1176 21.2826 30.1237C21.2803 30.1247 21.2116 30.1634 21.1299 30.2097ZM27.09 30.1669C26.3028 30.622 25.7844 31.0726 25.6214 31.4436C25.2865 32.2056 26.1087 32.92 26.8219 32.4867C27.0337 32.3581 27.142 32.1887 27.2323 31.8452C27.3408 31.4322 27.3338 30.909 27.2117 30.3134C27.1727 30.1231 27.1705 30.1204 27.09 30.1669Z" fill="#27979D"/>
<path fill-rule="evenodd" clip-rule="evenodd" d="M17.1517 11.0516C16.6861 11.0832 16.1163 11.2035 15.5723 11.3851C13.0324 12.2328 11.2631 14.58 11.1663 17.2305C11.1595 17.4173 11.1485 17.5756 11.1419 17.5822C11.1353 17.5888 11.0222 17.6089 10.8906 17.6268C8.96983 17.8879 7.23111 19.2474 6.53411 21.0331C6.44218 21.2686 6.4377 21.3086 6.51048 21.2434C6.6156 21.1492 7.72812 20.5729 8.23989 20.3475C9.17592 19.9353 10.059 19.6294 10.8619 19.4392C10.9566 19.4167 11.0773 19.386 11.1299 19.3709C11.3774 19.2999 12.0938 19.189 12.8341 19.107C13.3228 19.0529 14.5322 19.0481 15.0379 19.0982C15.4483 19.1389 16.2641 19.2488 16.3485 19.2748C16.3646 19.2798 16.4723 19.3046 16.5878 19.3299C17.3215 19.4904 18.2147 19.7517 18.7414 19.9598C18.8098 19.9869 19.0037 20.0606 19.1722 20.1237C19.3407 20.1868 19.6165 20.2958 19.785 20.3659C20.7915 20.7849 21.2123 20.9445 21.7702 21.119C22.3489 21.3001 22.4813 21.3331 23.2795 21.4949C25.0133 21.8466 27.0785 21.774 28.7942 21.3012C29.6621 21.0621 30.3184 20.8298 31.1799 20.4567C31.7092 20.2275 32.8537 19.6484 32.8537 19.6097C32.8537 19.6006 32.8198 19.5732 32.7783 19.5487C32.7369 19.5242 32.6012 19.4427 32.4767 19.3675C31.9938 19.0757 31.5187 18.8823 31.025 18.7765C30.8986 18.7494 30.7815 18.7231 30.7647 18.718C30.7394 18.7104 30.7321 18.6624 30.7223 18.4363C30.6414 16.573 29.3468 14.86 27.5496 14.2384C26.2927 13.8037 24.689 13.983 23.6672 14.6725C23.5908 14.724 23.5169 14.7706 23.5029 14.776C23.4781 14.7855 23.45 14.7403 23.1669 14.2355C22.9714 13.8869 22.4984 13.2585 22.2466 13.0129C22.2466 13.0129 20.0953 11.3398 18.5499 11.108C18.0095 11.027 17.6387 11.0185 17.1517 11.0516Z" fill="#27979D"/>
</svg>
