<svg width="40" height="40" viewBox="0 0 40 40" fill="none" xmlns="http://www.w3.org/2000/svg">
<path fill-rule="evenodd" clip-rule="evenodd" d="M23 14.3571H29.0001V13.5H23V14.3571ZM23 26.3571H29.0001V25.5H23V26.3571ZM23 23.7857H29.0001V22.9286H23V23.7857ZM31.575 18.6429H20.4268V8.35714H29.8684C30.8147 8.35714 31.575 9.12857 31.575 10.0714V18.6429ZM31.575 28.9286C31.575 29.8714 30.8147 30.6429 29.8684 30.6429H20.4268V19.5H31.575V28.9286ZM19.5731 18.6429H8.42501V10.0714C8.42501 9.12857 9.18531 8.35714 10.1316 8.35714H19.5731V18.6429ZM19.5731 30.6429H10.1316C9.18531 30.6429 8.42501 29.8714 8.42501 28.9286V19.5H19.5731V30.6429ZM29.8684 7.5H10.1316C9.45126 7.50204 8.79954 7.77397 8.31951 8.25608C7.83948 8.7382 7.57038 9.39109 7.57129 10.0714V28.9286C7.57129 30.3429 8.71559 31.5 10.1316 31.5H29.8684C30.5487 31.498 31.2004 31.226 31.6805 30.7439C32.1605 30.2618 32.4296 29.6089 32.4287 28.9286V10.0714C32.4287 8.65714 31.2844 7.5 29.8684 7.5ZM12.5042 27.2143L14.4285 25.2814L16.3528 27.2143L17 26.5671L15.0671 24.6429L17 22.7186L16.3528 22.0714L14.4285 24.0043L12.5042 22.0714L11.857 22.7186L13.7899 24.6429L11.857 26.5671L12.5042 27.2143ZM13.5714 16.9286H14.4285V14.3571H17V13.5H14.4285V10.9286H13.5714V13.5H10.9999V14.3571H13.5714V16.9286Z" fill="#27979D"/>
</svg>
