<svg width="40" height="40" viewBox="0 0 40 40" fill="none" xmlns="http://www.w3.org/2000/svg">
<path d="M20.8685 7.56434L19.3886 13.4196C19.1956 14.3847 19.0025 15.2855 18.7452 16.2507H18.6808C18.4235 15.2855 18.2304 14.3847 17.973 13.4196L16.3644 7.5H14.6915L13.0186 13.4196C12.7612 14.3847 12.5682 15.2855 12.3108 16.2507H12.2464C12.0534 15.2855 11.8604 14.3847 11.603 13.4196L10.0588 7.56434H8.25713L11.1526 17.7306H13.2116L14.6915 12.2614C14.9489 11.2962 15.2063 10.3311 15.3993 9.30161H15.4636C15.721 10.3311 15.914 11.2962 16.1714 12.2614L17.6513 17.7306H19.7747L22.5415 7.56434H20.8685ZM32.6434 23.071C31.9357 23.071 31.2922 23.5214 30.6488 24.2292C30.3914 23.5214 29.8766 23.071 28.9758 23.071C28.2681 23.071 27.6246 23.5214 27.1099 24.0362H27.0455L26.9812 23.1997H26.2091V29.1193H27.2386V24.8083C27.8176 24.2292 28.2681 23.9075 28.7185 23.9075C29.4906 23.9075 29.8123 24.3579 29.8123 25.5161V29.1193H30.8418V24.8727C31.4209 24.2936 31.8713 23.9718 32.3217 23.9718C33.0938 23.9718 33.4156 24.4223 33.4156 25.5804V29.1836H34.4451V25.4517C34.4451 23.9075 33.866 23.1354 32.6434 23.071ZM9.02925 20.1756C8.0641 20.1756 7.35631 20.6903 6.64853 21.3338L6.71288 19.8539V17.0871H5.55469V27.3177H6.77722V22.2346C7.485 21.5268 7.99975 21.1408 8.70753 21.1408C9.67269 21.1408 10.0588 21.7198 10.0588 23.0067V27.2534H11.2813V22.8137C11.2169 21.0764 10.5092 20.1756 9.02925 20.1756ZM16.0427 30.6635C14.6915 30.6635 13.9194 30.1488 13.9194 29.3767C13.9194 28.9263 14.1768 28.5402 14.6915 28.1542C15.0132 28.2185 15.3349 28.2828 15.6567 28.2828H16.9435C17.9087 28.2828 18.4235 28.4759 18.4235 29.1836C18.4235 29.9558 17.4583 30.6635 16.0427 30.6635ZM15.914 21.6555C16.7505 21.6555 17.4583 22.2989 17.4583 23.3284C17.4583 24.3579 16.7505 25.0657 15.914 25.0657C15.0776 25.0657 14.3698 24.4223 14.3698 23.3284C14.3054 22.2346 15.0132 21.6555 15.914 21.6555ZM17.0722 27.2534H15.6567C14.6272 27.2534 14.3698 26.9316 14.3698 26.4812C14.3698 26.0952 14.5628 25.8378 14.8202 25.6448C15.1419 25.8378 15.5923 25.9021 15.914 25.9021C17.3939 25.9021 18.6165 24.937 18.6165 23.3928C18.6165 22.8137 18.3591 22.2346 18.0374 21.9129H19.5816V20.9477H17.0079C16.6862 20.819 16.3001 20.7547 15.9784 20.7547C14.4985 20.7547 13.2116 21.7842 13.2116 23.3284C13.2116 24.1649 13.662 24.8727 14.1768 25.2587V25.3231C13.7907 25.5804 13.4046 26.0308 13.4046 26.6743C13.4046 27.2534 13.662 27.6394 14.0481 27.8324V27.8968C13.4046 28.3472 12.9542 28.9263 12.9542 29.5697C12.9542 30.7922 14.1768 31.5 15.9784 31.5C18.2948 31.5 19.7103 30.3418 19.7103 28.9906C19.646 27.8324 18.7452 27.2534 17.0722 27.2534ZM23.6353 22.0416C23.2492 22.0416 22.7988 21.9129 22.2841 21.4625V18.567C22.7988 18.1166 23.3136 17.7949 23.764 17.7949C24.7935 17.7949 25.2439 18.6314 25.2439 19.7895C25.2439 21.2051 24.5361 22.0416 23.6353 22.0416ZM24.0214 17.0871C23.3779 17.0871 22.7345 17.4088 22.2841 17.8592H22.2197L22.1554 17.2158H21.3833V24.937H22.3484V23.071V22.1059C22.8632 22.492 23.3779 22.7493 23.8927 22.7493C25.1796 22.7493 26.2734 21.6555 26.2734 19.7895C26.2091 18.181 25.4369 17.0871 24.0214 17.0871ZM26.7238 15.4142C27.5603 15.4142 28.3967 15.0925 29.0402 14.5134L28.5254 13.7413C28.075 14.1273 27.5603 14.4491 26.8525 14.4491C25.5656 14.4491 24.6648 13.3552 24.6648 11.7466C24.6648 10.1381 25.63 9.04424 26.8525 9.04424C27.4316 9.04424 27.882 9.30161 28.2681 9.68767L28.8471 8.91555C28.3967 8.46515 27.689 8.07909 26.7881 8.07909C24.9865 8.07909 23.3779 9.43029 23.3779 11.7466C23.3779 14.063 24.7935 15.4142 26.7238 15.4142ZM23.957 30.2775C23.5066 30.6635 23.1206 30.9209 22.6701 30.9209C22.2197 30.9209 21.8337 30.7279 21.8337 30.1488C21.8337 29.5697 22.3484 29.1836 23.957 28.9906V30.2775ZM23.1206 26.6099C22.3484 26.6099 21.705 26.9316 21.2546 27.189L21.5763 27.7681C21.9624 27.5107 22.4128 27.2534 22.9919 27.2534C23.764 27.2534 23.957 27.8324 23.957 28.4115C21.9624 28.6046 21.0615 29.1193 21.0615 30.1488C21.0615 30.9853 21.6406 31.5 22.4771 31.5C23.0562 31.5 23.571 31.1783 24.0214 30.8566L24.0857 31.4357H24.7291V28.5402C24.7935 27.382 24.2787 26.6099 23.1206 26.6099ZM31.6783 17.6019V20.3043C31.2279 20.7547 30.8418 21.0121 30.3271 21.0121C29.4262 21.0121 28.8471 20.2399 28.8471 19.0174C28.8471 17.8593 29.4906 17.0228 30.3914 17.0228C30.7775 17.0228 31.2279 17.2158 31.6783 17.6019ZM27.9463 19.0174C27.9463 20.7547 28.7828 21.7198 30.134 21.7198C30.7775 21.7198 31.2922 21.3981 31.7426 21.0121H31.807L31.8713 21.5912H32.5791V13.9987H31.6783V15.9933L31.7426 16.8941C31.2922 16.508 30.8418 16.315 30.2627 16.315C29.0402 16.315 27.9463 17.3445 27.9463 19.0174Z" fill="#27979D"/>
</svg>
