<svg width="40" height="40" viewBox="0 0 40 40" fill="none" xmlns="http://www.w3.org/2000/svg">
<path d="M34.1171 26.014C34.1178 26.2437 34.0257 26.4644 33.8611 26.6273C33.6965 26.7902 33.4729 26.8819 33.2395 26.8824H10.3073C9.81912 26.8829 9.42243 26.4946 9.42 26.014V16.461L34.1215 16.4602L34.1171 26.014ZM9.42089 12.9873C9.42089 12.8118 9.52673 12.5331 9.61493 12.3924C9.77193 12.1475 9.99419 12.1188 10.3029 12.1188H33.2351C33.7184 12.1188 34.1171 12.5061 34.1171 12.9873V14.7242H9.42089V12.9873ZM31.4711 11.2504L31.4755 11.2495C31.3344 10.2951 30.6799 9.38147 29.7115 9.51261L18.2401 11.2504H10.302C9.44735 11.2504 8.69676 11.3129 8.538 12.1188L6.64609 12.8127C5.67941 12.9447 4.87502 13.7689 5.01614 14.7233L7.0183 27.7917C7.15942 28.7461 7.57484 29.618 8.54417 29.4869L20.0059 27.7509H33.236C34.2036 27.7509 35 26.9771 35 26.014V12.9873C35 12.0242 34.2036 11.2504 33.236 11.2504H31.4711ZM23.2737 23.3131H23.0532L23.2737 22.9796V23.3131ZM23.7526 22.2345H23.234L22.4825 23.4043V23.7369H23.2737V24.2059H23.7526V23.7369H23.9837V23.3131H23.7526V22.2345ZM21.8863 19.3339C22.023 19.3339 22.0892 19.4103 22.0892 19.5666C22.0892 19.7221 22.0195 19.8185 21.9066 19.8185C21.8528 19.8185 21.7099 19.8185 21.6579 19.4806C21.7355 19.3842 21.8149 19.3339 21.8872 19.3339H21.8863ZM21.9066 20.2423C22.2841 20.2423 22.5663 19.9522 22.5663 19.5666C22.5663 19.1671 22.33 18.9205 21.9463 18.9205C21.8489 18.9225 21.7541 18.9517 21.6729 19.0047C21.7143 18.7659 21.8202 18.6452 21.9877 18.6452C22.0592 18.6452 22.1536 18.6921 22.1968 18.7503L22.2629 18.8354L22.5707 18.4941L22.5125 18.435C22.3692 18.2912 22.173 18.2104 21.9683 18.211C21.5979 18.211 21.1657 18.4889 21.1657 19.2765C21.1657 19.9887 21.5485 20.2423 21.9066 20.2423ZM23.3019 19.808C23.174 19.808 23.0656 19.7559 22.943 19.6343L22.8689 19.5605L22.6175 19.914L22.666 19.9661C22.8401 20.1505 23.087 20.2513 23.3425 20.2423C23.6997 20.2423 24.0631 20.0008 24.0631 19.5371C24.0631 19.1437 23.8073 18.8901 23.4122 18.8901C23.3649 18.8898 23.3178 18.8953 23.2719 18.9066L23.2922 18.6851H23.9837V18.2405H22.8477L22.7895 19.2618L23.0303 19.4207L23.0788 19.3903C23.1846 19.3226 23.2278 19.3035 23.3222 19.3035C23.4757 19.3035 23.5656 19.3947 23.5656 19.5458C23.5656 19.7073 23.4651 19.808 23.3019 19.808ZM24.3295 22.8676L24.3912 22.799C24.4944 22.6861 24.5888 22.6288 24.6787 22.6288C24.8551 22.6288 24.8807 22.7677 24.8807 22.8511C24.8807 23.0968 24.5703 23.4121 24.0957 23.8654L24.0675 23.8915V24.2059H25.4593V23.7525H24.9284L24.8481 23.7534C25.1242 23.4564 25.3685 23.1516 25.3685 22.8407C25.3685 22.4542 25.1127 22.205 24.7176 22.205C24.4662 22.205 24.281 22.2901 24.0816 22.5011L24.0234 22.5628L24.3286 22.8676H24.3295ZM12.4912 19.32L12.7143 18.9726V19.32H12.4912ZM13.1906 20.2127V19.7429H13.4217V19.32H13.1924V18.2405H12.6631L11.9196 19.4103V19.7429H12.7134V20.2127H13.1906ZM15.4044 20.1215L15.4 20.2127H15.9072L15.9116 20.1294C15.9416 19.4633 15.9998 19.0924 16.4143 18.5818L16.4346 18.5583V18.2405H15.0534V18.6851H15.8207C15.5447 19.1194 15.4327 19.5145 15.4053 20.1215H15.4044ZM15.34 24.6548L16.0395 22.0243H15.6355L14.9361 24.6548H15.34ZM17.2302 19.1194C17.1393 19.1194 17.0361 19.0907 17.0361 18.8771C17.0361 18.7303 17.1085 18.6348 17.2187 18.6348C17.351 18.6348 17.4348 18.7494 17.4692 18.9752C17.3986 19.0681 17.3149 19.1194 17.2302 19.1194ZM17.1385 19.808C17.052 19.8033 16.9712 19.7638 16.9153 19.6986L16.8474 19.6213L16.5572 19.96L16.6154 20.0182C16.7572 20.1643 16.9544 20.2455 17.1596 20.2423C17.5407 20.2423 17.9499 19.96 17.9499 19.1663C17.9499 18.4611 17.5521 18.211 17.209 18.211C16.8386 18.211 16.5599 18.4967 16.5599 18.8771C16.5599 19.2765 16.7918 19.5232 17.1684 19.5232C17.2704 19.5206 17.3696 19.4903 17.4551 19.4355C17.4154 19.683 17.3096 19.808 17.1393 19.808H17.1385ZM21.403 23.3834C21.5106 23.3166 21.5529 23.2975 21.6464 23.2975C21.8034 23.2975 21.8898 23.3834 21.8898 23.5389C21.8898 23.7004 21.7893 23.802 21.6279 23.802C21.4973 23.802 21.3897 23.7499 21.2671 23.6275L21.193 23.5545L20.939 23.9088L20.992 23.9618C21.1119 24.0791 21.3104 24.2362 21.6667 24.2362C22.0257 24.2362 22.3873 23.9939 22.3873 23.5302C22.3873 23.1377 22.1315 22.8841 21.7364 22.8841C21.6891 22.8835 21.642 22.8887 21.5961 22.8997L21.6164 22.6783H22.3061V22.2345H21.171L21.1145 23.2558L21.3553 23.4147L21.403 23.3834ZM18.7658 19.1194C18.6776 19.1194 18.5629 19.0933 18.5629 18.8771C18.5629 18.7103 18.6573 18.6348 18.7455 18.6348C18.7984 18.6348 18.9545 18.6348 18.9942 18.9743C18.9254 19.0664 18.8443 19.1194 18.7666 19.1194H18.7658ZM18.6758 19.808C18.5885 19.8033 18.507 19.7638 18.45 19.6986L18.3847 19.6231L18.0822 19.9583L18.1404 20.0182C18.2837 20.1621 18.4799 20.2429 18.6846 20.2423C19.0727 20.2423 19.4864 19.96 19.4864 19.1663C19.4864 18.4611 19.0877 18.211 18.7455 18.211C18.368 18.211 18.0946 18.4906 18.0946 18.8771C18.0946 19.2826 18.3239 19.5232 18.7049 19.5232C18.8054 19.5202 18.9031 19.4899 18.9871 19.4355C18.9448 19.683 18.8399 19.808 18.6758 19.808ZM24.5306 18.8093C24.6223 18.7173 24.7149 18.6348 24.8199 18.6348C24.9522 18.6348 25.0315 18.7173 25.0315 18.8571C25.0315 19.1063 24.6849 19.445 24.2466 19.8732L24.2183 19.8992V20.2127H25.6101V19.7585H25.0809L24.9954 19.7603C25.2873 19.4389 25.5202 19.1498 25.5202 18.8475C25.5202 18.4602 25.2609 18.211 24.8587 18.211C24.5632 18.211 24.3797 18.3525 24.2254 18.5062L24.1637 18.5679L24.4688 18.871L24.5306 18.8093ZM20.1408 19.32L20.3648 18.9717C20.3631 18.983 20.3631 18.996 20.3631 19.0073V19.32H20.1399H20.1408ZM20.364 20.2127H20.8411V19.7429H21.0722V19.32H20.8411V18.2405H20.3234L19.5719 19.4103V19.7429H20.364V20.2127ZM14.0206 19.32L14.2393 18.9865V19.32H14.0206ZM14.2393 20.2127H14.7182V19.7429H14.9484V19.32H14.7182V18.2405H14.1996L13.4464 19.4103V19.7429H14.2402V20.2127H14.2393ZM18.3433 22.8841C18.2988 22.8833 18.2543 22.888 18.211 22.898L18.2242 22.6783H18.9148V22.2345H17.7788L17.7206 23.2558L17.9596 23.4147L18.009 23.3834C18.1148 23.3166 18.1678 23.2975 18.2524 23.2975C18.4094 23.2975 18.4967 23.3834 18.4967 23.5389C18.4967 23.7004 18.3953 23.802 18.2321 23.802C18.1034 23.802 17.9958 23.7499 17.8732 23.6275L17.7964 23.5528L17.5583 23.9088L17.605 23.9592C17.7788 24.1433 18.0055 24.2362 18.2824 24.2362C18.6414 24.2362 19.0039 23.9939 19.0039 23.5302C19.0039 23.1377 18.7437 22.8841 18.3424 22.8841H18.3433ZM30.9278 19.3973C31.1439 19.4867 31.2559 19.5414 31.2559 19.6561C31.2559 19.8141 31.1236 19.8384 31.0442 19.8384C30.9057 19.8384 30.8105 19.7516 30.8105 19.6265C30.8105 19.5414 30.8493 19.4641 30.9278 19.3973ZM31.0433 18.6148C31.1589 18.6148 31.2259 18.6817 31.2259 18.7963C31.2236 18.8727 31.1936 18.9457 31.1412 19.0021C30.9719 18.9318 30.8907 18.8788 30.8907 18.7668C30.8907 18.6704 30.9463 18.6148 31.0433 18.6148ZM31.0433 20.2423C31.4437 20.2423 31.7348 20 31.7348 19.6656C31.7348 19.4659 31.6484 19.3096 31.4764 19.1897C31.5916 19.0818 31.6591 18.9337 31.6642 18.7772C31.6642 18.4376 31.4173 18.211 31.0539 18.211C30.6817 18.211 30.4233 18.4385 30.4233 18.7668C30.4233 18.9231 30.4894 19.0681 30.6129 19.1914C30.433 19.3182 30.343 19.4772 30.343 19.6656C30.343 20 30.6385 20.2423 31.0433 20.2423ZM16.8668 23.7534C17.1437 23.4564 17.3872 23.1516 17.3872 22.8407C17.3872 22.4542 17.1332 22.205 16.738 22.205C16.4231 22.205 16.2388 22.3543 16.1012 22.5011L16.0439 22.5628L16.3482 22.8676L16.4117 22.799C16.514 22.6861 16.6093 22.6288 16.6983 22.6288C16.8747 22.6288 16.8994 22.7677 16.8994 22.8511C16.8994 23.0968 16.5898 23.4121 16.1144 23.8654L16.088 23.8915V24.2059H17.478V23.7525H16.9488L16.8677 23.7534H16.8668ZM13.1244 23.7612H12.7628V22.2345H12.4074L12.3862 22.2475C12.2918 22.3074 12.1869 22.3448 12.0016 22.3856L11.9337 22.4012V22.7582H12.2645V23.7612H11.8632V24.2059H13.1236V23.7612H13.1244ZM14.1449 23.7534C14.421 23.4564 14.6653 23.1516 14.6653 22.8407C14.6653 22.4542 14.4095 22.205 14.0144 22.205C13.763 22.205 13.5778 22.2901 13.3793 22.5011L13.3202 22.5628L13.6272 22.8676L13.6889 22.799C13.7912 22.6861 13.8874 22.6288 13.9756 22.6288C14.152 22.6288 14.1784 22.7677 14.1784 22.8511C14.1784 23.0968 13.8671 23.4121 13.3926 23.8654L13.3652 23.8915V24.2059H14.7562V23.7525H14.2252L14.1449 23.7534ZM29.169 20.1207L29.1638 20.2127H29.6718L29.6762 20.1294C29.7053 19.4476 29.7838 19.082 30.1878 18.5818L30.2072 18.5583V18.2405H28.8277V18.6851H29.5951C29.3216 19.115 29.207 19.5102 29.169 20.1207ZM27.1069 19.7681H26.7541V18.2405H26.4013L26.381 18.2518C26.2576 18.3201 26.1234 18.3677 25.9841 18.3925L25.9153 18.4081V18.7642H26.2478V19.7681H25.8456V20.2127H27.1069V19.7681ZM28.0119 19.3339C28.1018 19.3339 28.205 19.3599 28.205 19.5666C28.205 19.7169 28.1362 19.8185 28.033 19.8185C27.9801 19.8185 27.8213 19.8185 27.7816 19.4798C27.8513 19.3868 27.9334 19.3339 28.011 19.3339H28.0119ZM28.033 20.2423C28.4079 20.2423 28.6822 19.9583 28.6822 19.5666C28.6822 19.1671 28.4484 18.9205 28.0718 18.9205C27.9714 18.9228 27.8737 18.9536 27.7905 19.0091C27.8355 18.7668 27.9404 18.6452 28.1027 18.6452C28.1899 18.6499 28.2712 18.6898 28.3276 18.7555L28.3946 18.8319L28.6822 18.4949L28.6293 18.4385C28.4882 18.2894 28.2893 18.2066 28.0824 18.211C27.7164 18.211 27.2921 18.4889 27.2921 19.2765C27.2921 19.9887 27.674 20.2423 28.033 20.2423ZM26.3378 23.3131H26.1173L26.3378 22.9796V23.3131ZM26.2972 22.2345L25.544 23.4043V23.7369H26.3378V24.2059H26.8141V23.7369H27.0452V23.3131H26.815V22.2345H26.2972Z" fill="#27979D"/>
</svg>
