<svg width="40" height="40" viewBox="0 0 40 40" fill="none" xmlns="http://www.w3.org/2000/svg">
<path fill-rule="evenodd" clip-rule="evenodd" d="M6.2074 6.32179C6.42077 5.82676 7.24478 5.28208 7.95223 5.16847C8.48202 5.08335 9.0417 5.16595 9.22387 5.35609C9.40716 5.5474 9.8245 6.66148 10.0804 7.64254C10.0948 7.69774 10.108 7.74813 10.12 7.79421C10.2243 8.19247 10.2441 8.26791 10.2252 8.33193C10.2207 8.34689 10.2142 8.36124 10.2062 8.37892C10.2022 8.38769 10.1978 8.39729 10.1931 8.4082C9.71204 9.53041 9.51191 10.2844 9.42227 11.3124C9.37987 11.7985 9.41188 12.6562 9.48755 13.0613C9.48964 13.0725 9.49173 13.0825 9.49362 13.0916C9.5003 13.1238 9.50446 13.1438 9.49704 13.1576C9.48488 13.1802 9.44161 13.1861 9.3274 13.2016C9.30772 13.2043 9.28595 13.2073 9.26187 13.2107C8.5082 13.3164 7.50994 13.669 6.89957 14.045C6.85606 14.0718 6.83704 14.0835 6.83114 14.0788C6.82657 14.0751 6.8299 14.0616 6.83583 14.0375C6.84331 14.0072 6.8756 13.8392 6.90759 13.6642C7.37956 11.0836 7.18386 8.87878 6.30206 6.84179L6.14232 6.47276L6.2074 6.32179ZM10.5654 11.3386C10.8518 8.1282 13.1611 5.67858 16.1365 5.42883C18.1447 5.26027 20.1083 6.22692 21.3292 7.98516C21.5305 8.27502 21.6638 8.50598 21.6422 8.52757C21.6351 8.53468 21.4717 8.58551 21.2791 8.64052C20.4735 8.87067 19.5654 9.24926 18.887 9.6378L18.7083 9.74017L18.478 9.58672C17.7823 9.12326 17.2779 8.95674 16.6343 8.97812C14.846 9.03759 13.7786 11.1194 14.5596 13.0247L14.6514 13.2486L14.576 13.3542C13.9492 14.2318 13.3693 15.3187 12.9192 16.4592L12.9143 16.4717C12.8639 16.5995 12.8437 16.6506 12.8142 16.6567C12.7945 16.6608 12.7707 16.6449 12.7309 16.6183L12.7251 16.6145C11.2918 15.6594 10.3789 13.4292 10.5654 11.3386ZM19.5543 10.557C21.0221 9.79385 22.5703 9.37578 24.2693 9.2838C24.8927 9.25003 24.9975 9.26048 25.104 9.36703C25.6065 9.86949 25.6993 11.0334 25.2976 11.7953C25.1514 12.0726 25.0978 12.0981 24.6224 12.1159C22.0816 12.2113 20.0197 13.3417 19.0782 15.1555C18.7926 15.7058 18.7053 15.9925 18.6778 16.4705C18.6234 17.4173 18.9913 18.1229 19.7588 18.5438C20.1319 18.7484 20.4991 18.8353 21.6107 18.9821C22.1201 19.0493 22.6474 19.1389 22.8248 19.1882C23.3605 19.3371 23.9516 19.5765 24.2356 19.7597C24.4735 19.9131 24.9482 20.9984 25.1646 21.8838C25.342 22.6097 25.4566 23.4819 25.467 24.1851L25.4727 24.5714L23.7235 24.5836C22.3955 24.5929 21.9524 24.6028 21.8834 24.6248C21.5031 24.7462 21.2485 24.8912 21.0278 25.1119C20.1868 25.9528 20.3926 27.3747 21.4405 27.9644C21.8067 28.1705 21.8745 28.1787 23.3344 28.1939L24.6037 28.2071L24.7467 28.7081L24.8896 29.2092L24.8369 29.4063C24.808 29.5148 24.7362 29.7444 24.6775 29.9165C23.9054 32.1794 23.0358 33.3016 21.7351 33.7134C21.2724 33.8599 21.2311 33.8653 20.5768 33.8648C17.7919 33.8629 13.7408 32.3865 10.9982 30.3741C10.7592 30.1986 10.7145 30.1641 10.3286 29.8552C8.8695 28.6878 7.78905 27.3578 7.34979 26.1884C7.26201 25.9548 7.27323 25.8334 7.44648 25.1421C7.77949 23.8134 8.32221 22.8628 9.31683 21.8661C9.78423 21.3977 10.0953 21.1448 10.9762 20.5173C12.5624 19.3874 13.3579 18.403 14.0539 16.7091C14.4657 15.7069 14.8815 14.9091 15.3294 14.2619C15.9696 13.337 15.9778 13.306 15.7165 12.7916C15.2881 11.9484 15.3686 11.0227 15.9183 10.4706C16.466 9.92055 17.1065 9.99156 18.0545 10.7075C18.5423 11.0758 18.5598 11.0741 19.5543 10.557ZM19.8164 16.641C19.814 15.7766 20.5533 14.7291 21.6044 14.1077C21.8805 13.9444 21.9064 13.9423 22.1641 14.063C23.4626 14.671 24.3716 16.1864 24.3716 17.7431C24.3716 17.9829 24.3187 18.4852 24.2905 18.5135C24.2853 18.5186 24.171 18.4711 24.0366 18.4078C23.5525 18.1798 22.9691 18.0268 22.1106 17.9029C22.0231 17.8903 21.8186 17.8599 21.6562 17.8354C21.4937 17.8109 21.2483 17.7743 21.1108 17.7539C20.5156 17.6658 20.3036 17.5863 20.0861 17.3696C19.8577 17.1421 19.8174 17.0334 19.8164 16.641ZM5.40776 17.5331C6.05095 15.83 7.44998 14.6933 9.3174 14.3567C9.32912 14.3546 9.34052 14.3525 9.35162 14.3505C9.54875 14.3148 9.64832 14.2968 9.71742 14.3345C9.78795 14.373 9.82674 14.4697 9.90512 14.6649C9.90945 14.6757 9.9139 14.6867 9.91848 14.6981C10.4343 15.9804 11.12 16.8953 12.1058 17.6162C12.1095 17.6189 12.1131 17.6216 12.1166 17.6241L12.1246 17.63C12.1876 17.6758 12.2245 17.7027 12.2319 17.7361C12.2423 17.7836 12.1928 17.8443 12.0729 17.9913L12.0726 17.9916C12.0646 18.0014 12.0563 18.0116 12.0476 18.0222C11.5942 18.579 11.1582 18.964 10.1127 19.731C8.02601 21.2619 6.96031 22.665 6.39745 24.6225C6.3369 24.8332 6.33587 24.8329 6.14461 24.543C4.98581 22.787 4.64567 19.5511 5.40776 17.5331Z" fill="#27979D"/>
<path d="M29.708 19.1139C29.4894 19.196 29.3069 19.3516 29.2126 19.5364C29.1688 19.6222 29.0866 20.0061 28.8033 21.447C28.7406 21.7656 28.6023 22.4559 28.496 22.9808C28.3896 23.5057 28.2561 24.1755 28.1992 24.4692C28.1423 24.7629 28.0599 25.177 28.0161 25.3895C27.9722 25.6019 27.8717 26.103 27.7928 26.5029C27.7138 26.9028 27.6441 27.2556 27.6377 27.2868C27.4779 28.0763 27.3885 28.504 27.3821 28.5105C27.3704 28.5222 27.2341 28.0716 27.0876 27.5368C26.675 26.0308 26.6599 25.9872 26.4913 25.8069C26.4789 25.7936 26.4675 25.7811 26.4568 25.7692C26.4283 25.7378 26.4043 25.7114 26.377 25.6891C26.2312 25.5706 25.9888 25.5706 24.4553 25.5712H24.4504C24.3433 25.5712 24.2299 25.5712 24.1098 25.5712L21.7729 25.5712V27.196H23.6991L25.333 27.2073L25.4883 27.7868C25.5738 28.1055 25.6899 28.5298 25.7463 28.7298C25.9992 29.6263 26.2299 30.464 26.563 31.6952C26.7296 32.3108 26.7941 32.4455 26.9969 32.6002C27.413 32.9176 28.0353 32.7739 28.2424 32.3126C28.3022 32.1793 28.4794 31.3379 28.87 29.3319C28.9565 28.8883 29.0484 28.4299 29.0744 28.3134C29.1004 28.1969 29.1577 27.9106 29.2018 27.6772C29.2459 27.4438 29.3217 27.0534 29.3702 26.8097C29.4186 26.566 29.5007 26.1467 29.5526 25.878C29.8127 24.5314 30.007 23.6023 30.007 23.7057C30.007 23.7148 30.042 23.8622 30.0849 24.0333C30.1923 24.4616 30.41 25.3519 30.564 25.9916C30.6346 26.2853 30.707 26.5784 30.7247 26.643C30.7824 26.8529 31.0083 27.0822 31.2367 27.1628C31.3161 27.1908 31.6152 27.196 33.1653 27.196H35V25.5649H33.5703L32.1232 25.5586L32.0967 25.4286C32.0821 25.3571 31.9959 25.002 31.9049 24.6396C31.8141 24.2771 31.6657 23.6738 31.5754 23.2989C31.485 22.924 31.3411 22.3309 31.2556 21.981C31.1701 21.631 31.0536 21.1453 30.9967 20.9016L30.9949 20.8938C30.7177 19.7064 30.6754 19.5251 30.568 19.3994C30.5486 19.3768 30.5271 19.3559 30.5018 19.3314L30.5009 19.3306C30.2929 19.1287 29.9317 19.03 29.708 19.1139Z" fill="#27979D"/>
</svg>
