<svg width="41" height="40" viewBox="0 0 41 40" fill="none" xmlns="http://www.w3.org/2000/svg">
<path fill-rule="evenodd" clip-rule="evenodd" d="M11.107 13.5476C11.877 13.5476 12.482 12.8316 13.705 10.8776L14.097 12.1306C14.399 13.1306 14.732 13.5476 15.2 13.5476C15.744 13.5476 16.544 13.0546 17.359 11.7726L17.072 11.4296C16.559 12.0266 16.227 12.2956 16.015 12.2956C15.819 12.2956 15.607 11.9366 15.395 11.2056L14.837 9.44561C15.154 8.98361 15.472 8.62561 15.729 8.34261C16.045 7.99961 16.272 7.83561 16.453 7.83561C16.603 7.83561 16.725 7.90861 16.801 8.01361C16.891 8.10361 17.556 6.62661 17.087 6.62661C16.423 6.62661 15.819 7.19361 14.641 8.87861L14.384 8.13261C14.052 7.14961 13.841 6.62761 13.372 6.62761C12.829 6.62761 12.074 7.28261 11.318 8.34261L11.636 8.69961C12.119 8.07261 12.391 7.89561 12.542 7.89561C12.678 7.89561 12.814 8.02861 13.07 8.84861L13.508 10.2656C12.692 11.5046 12.044 12.2206 11.681 12.2206C11.6131 12.2245 11.5452 12.213 11.4824 12.187C11.4196 12.161 11.3634 12.1213 11.318 12.0706C11.243 11.9826 11.152 11.9226 11.046 11.9226C10.745 11.9226 10.352 12.2656 10.352 12.7426C10.337 13.2196 10.684 13.5486 11.107 13.5486V13.5476ZM23.564 33.1726H21.768L23.09 31.9326C24.18 30.9106 24.632 30.2356 24.632 29.3766C24.632 28.1676 23.718 27.4396 22.627 27.4396C21.933 27.4396 21.382 27.7126 20.964 28.1136L20.258 29.1366L20.578 29.3986C20.941 28.8866 21.394 28.4286 22.054 28.4286C22.814 28.4286 23.211 28.9726 23.211 29.7246C23.211 30.5506 22.771 31.3666 21.999 32.2706C21.459 32.9016 20.819 33.5006 20.236 34.0666V34.3486H24.654C24.774 33.8916 24.908 33.2066 25.084 32.5756L24.721 32.4446C24.313 33.1516 24.225 33.1726 23.564 33.1726ZM18.739 32.9886V27.4396C17.769 27.6996 16.954 27.8956 16.227 28.0056V28.3216L16.789 28.3636C17.241 28.3976 17.285 28.4736 17.285 29.0386V32.9886C17.285 33.7596 17.185 33.9246 16.315 33.9786V34.3486H19.697V33.9786C18.816 33.9236 18.739 33.7386 18.739 32.9886ZM39.415 16.1566C39.257 16.2226 39.077 16.3006 38.795 16.3006C37.975 16.3006 37.458 15.4686 37.458 14.5246C37.458 13.8136 37.716 13.0246 38.324 13.0246C39.19 13.0246 39.471 14.2466 39.471 15.3346C39.471 15.5786 39.46 15.8446 39.415 16.1566ZM38.537 12.5796C36.827 12.5796 35.973 13.9796 35.973 14.9676C35.973 16.1336 36.805 17.0676 38.143 17.0676C38.335 17.0676 38.526 17.0116 38.796 16.8676L39.336 16.5906C39.055 17.9226 37.896 19.1106 36.232 19.4006L36.299 19.7996C36.805 19.7886 37.772 19.6116 38.222 19.4326C39.808 18.8116 41 17.3996 41 15.3896C41 13.8686 40.179 12.5796 38.537 12.5796ZM32 18.6536H26V24.6536H3.406L32 6.46261V18.6516V18.6536ZM27 24.6536H32V19.6536H27V24.6536ZM33 25.6536V4.65161L0 25.6516H33V25.6536Z" fill="#27979D"/>
</svg>
