<svg width="40" height="40" viewBox="0 0 40 40" fill="none" xmlns="http://www.w3.org/2000/svg">
<path d="M31.7845 18.4287L23.0321 14.5065V8.87743C23.0321 8.84112 23.0321 8.76848 23.0321 8.73217C23.0321 6.95266 19.7273 5.5 15.6235 5.5C11.5197 5.5 8.21484 6.95266 8.21484 8.73217C8.21484 8.76848 8.21484 8.84112 8.21484 8.87743V24.2756C8.25116 25.7646 10.6118 27.0357 13.844 27.3988V29.5052V29.5415L22.8142 33.5L31.7845 29.5415V29.5052V18.4287ZM30.5497 28.7425L23.4679 31.8658V22.0966L30.5497 18.9734V28.7425ZM15.115 18.9734L22.1968 22.0966V31.8658L15.115 28.7425V18.9734ZM22.8142 21.0071L16.8946 18.3923L22.8142 15.7776L28.7339 18.3923L22.8142 21.0071ZM15.6235 6.73476C19.4731 6.73476 21.6158 8.00584 21.7973 8.62322V8.76848C21.6158 9.38586 19.4731 10.6569 15.6235 10.6569C11.7739 10.6569 9.6312 9.38586 9.44962 8.76848V8.65953C9.6312 8.04215 11.7739 6.73476 15.6235 6.73476ZM9.48593 24.2393V10.548C10.8297 11.4196 13.0813 11.9643 15.6598 11.9643C18.2383 11.9643 20.4899 11.3833 21.8337 10.548V14.906L13.8803 18.4287H13.9166V26.1278C11.0112 25.8009 9.48593 24.7114 9.48593 24.2393Z" fill="#27979D"/>
</svg>
